<?xml version="1.0" encoding="utf-8"?>
<!-- Generator: Adobe Illustrator 24.0.1, SVG Export Plug-In . SVG Version: 6.00 Build 0)  -->
<svg version="1.1"
	 id="svg8" inkscape:version="0.92.4 (5da689c313, 2019-01-14)" sodipodi:docname="A.svg" xmlns:cc="http://creativecommons.org/ns#" xmlns:dc="http://purl.org/dc/elements/1.1/" xmlns:inkscape="http://www.inkscape.org/namespaces/inkscape" xmlns:rdf="http://www.w3.org/1999/02/22-rdf-syntax-ns#" xmlns:sodipodi="http://sodipodi.sourceforge.net/DTD/sodipodi-0.dtd" xmlns:svg="http://www.w3.org/2000/svg"
	 xmlns="http://www.w3.org/2000/svg" xmlns:xlink="http://www.w3.org/1999/xlink" x="0px" y="0px" viewBox="0 0 1000 560.4"
	 style="enable-background:new 0 0 1000 560.4;" xml:space="preserve">
<style type="text/css">
	.st0{fill:#32DE84;}
</style>
<sodipodi:namedview  bordercolor="#666666" borderopacity="1.0" fit-margin-bottom="0" fit-margin-left="0" fit-margin-right="0" fit-margin-top="0" id="base" inkscape:current-layer="layer1" inkscape:cx="1292.0825" inkscape:cy="333.20379" inkscape:document-units="px" inkscape:pageopacity="0.0" inkscape:pageshadow="2" inkscape:window-height="1017" inkscape:window-maximized="1" inkscape:window-width="1920" inkscape:window-x="1912" inkscape:window-y="-8" inkscape:zoom="0.175" pagecolor="#ffffff" showgrid="false" units="px">
	<inkscape:grid  id="grid823" originx="-66.971031" originy="195.86492" type="xygrid"></inkscape:grid>
</sodipodi:namedview>
<path id="path80319" inkscape:connector-curvature="0" class="st0" d="M744.1,168.8L827,25.2c4.7-8.1,1.8-18.3-6.1-23
	c-7.9-4.7-18.3-2-22.8,6.1l-84,145.5c-64.1-29.3-136.2-45.6-213.8-45.6c-77.6,0-149.7,16.3-213.8,45.6l-84-145.5
	c-4.7-8.1-14.9-10.8-23-6.1c-8.1,4.7-10.8,14.9-6.1,23l82.9,143.6C113.4,246.3,16.6,391,0.6,560.4h999.3
	C983.9,391,887.1,246.3,744.1,168.8z M270.8,420c-23.2,0-41.9-18.8-41.9-41.9c0-23.2,18.8-41.9,41.9-41.9
	c23.2,0,41.9,18.8,41.9,41.9C312.8,401.2,294,420,270.8,420z M729.6,420c-23.2,0-41.9-18.8-41.9-41.9c0-23.2,18.8-41.9,41.9-41.9
	c23.2,0,41.9,18.8,41.9,41.9C771.6,401.2,752.8,420,729.6,420z"/>
</svg>
