<?xml version="1.0" encoding="utf-8"?>
<!-- Generator: Adobe Illustrator 24.0.1, SVG Export Plug-In . SVG Version: 6.00 Build 0)  -->
<svg version="1.1" id="Layer_1" xmlns="http://www.w3.org/2000/svg" xmlns:xlink="http://www.w3.org/1999/xlink" x="0px" y="0px"
	 viewBox="0 0 24 24" style="enable-background:new 0 0 24 24;" xml:space="preserve">
<style type="text/css">
	.st0{fill-rule:evenodd;clip-rule:evenodd;fill:#934BFF;}
</style>
<path class="st0" d="M3.8,11h16.4c1,0,1.8,0.9,1.8,2v2c0,1.1-0.8,2-1.8,2H3.8c-1,0-1.8-0.9-1.8-2v-2C2,11.9,2.8,11,3.8,11z M4,13v2
	h16v-2H4z M3.8,3h16.4c1,0,1.8,0.9,1.8,2v2c0,1.1-0.8,2-1.8,2H3.8C2.8,9,2,8.1,2,7V5C2,3.9,2.8,3,3.8,3z M4,5v2h16V5H4z M2,19h12v2
	H2V19z"/>
</svg>
