<?xml version="1.0" encoding="utf-8"?>
<!-- Generator: Adobe Illustrator 24.0.1, SVG Export Plug-In . SVG Version: 6.00 Build 0)  -->
<svg version="1.1" id="Layer_1" xmlns="http://www.w3.org/2000/svg" xmlns:xlink="http://www.w3.org/1999/xlink" x="0px" y="0px"
	 viewBox="0 0 24 24" style="enable-background:new 0 0 24 24;" xml:space="preserve">
<style type="text/css">
	.st0{fill-rule:evenodd;clip-rule:evenodd;}
</style>
<path class="st0" d="M19,21H5c-1.7,0-3-1.3-3-3V3h14h2v5h4v1v9C22,19.7,20.7,21,19,21z M16.2,19c-0.1-0.3-0.2-0.6-0.2-1V5H4v13
	c0,0.6,0.4,1,1,1H16.2z M18,10v8c0,0.6,0.4,1,1,1s1-0.4,1-1v-8H18z M10,7v4H6V7H10z M14,8v2h-3V8H14z M14,12v2H6v-2H14z M14,15v2H6
	v-2H14z"/>
</svg>
