<svg xmlns="http://www.w3.org/2000/svg" xmlns:xlink="http://www.w3.org/1999/xlink" viewBox="0 0 1801.06 1081.5"><defs><style>.cls-1{fill:url(#linear-gradient);}.cls-2{fill:url(#linear-gradient-2);}.cls-3{fill:url(#linear-gradient-3);}.cls-4{fill:url(#linear-gradient-4);}.cls-5{fill:url(#linear-gradient-5);}.cls-6{fill:url(#linear-gradient-6);}.cls-7{fill:none;stroke:#000;stroke-miterlimit:10;stroke-width:3px;}</style><linearGradient id="linear-gradient" x1="1080" y1="721.5" x2="0" y2="721.5" gradientUnits="userSpaceOnUse"><stop offset="0" stop-color="#e96443"/><stop offset="1" stop-color="#904e95"/></linearGradient><linearGradient id="linear-gradient-2" x1="180" y1="1081.5" x2="180" y2="1.5" xlink:href="#linear-gradient"/><linearGradient id="linear-gradient-3" x1="630" y1="91.5" x2="990" y2="451.5" xlink:href="#linear-gradient"/><linearGradient id="linear-gradient-4" x1="1890" y1="91.5" x2="1530" y2="451.5" xlink:href="#linear-gradient"/><linearGradient id="linear-gradient-5" x1="1260" y1="361.5" x2="1260" y2="1081.5" xlink:href="#linear-gradient"/><linearGradient id="linear-gradient-6" x1="0" y1="181.5" x2="720" y2="181.5" xlink:href="#linear-gradient"/></defs><title>Asset 3</title><g id="Layer_2" data-name="Layer 2"><g id="Layer_1-2" data-name="Layer 1"><path class="cls-1" d="M1080,361.5c0,397.65-322.35,720-720,720H0l360-360c198.83,0,360-161.17,360-360Z"/><polygon class="cls-2" points="360 361.5 360 721.5 0 1081.5 0 1.5 360 361.5"/><polygon class="cls-3" points="1080 361.5 720 361.5 720 1.5 1080 361.5"/><polygon class="cls-4" points="1800 1.5 1800 361.5 1440 361.5 1800 1.5"/><polygon class="cls-5" points="1440 361.5 1440 1081.5 1080 1081.5 1080 721.5 1440 361.5"/><polygon class="cls-6" points="720 1.5 720 361.5 360 361.5 0 1.5 720 1.5"/><line class="cls-7" x1="1080" y1="361.5" x2="1800" y2="1.5"/><line class="cls-7" x1="1440" y1="361.5" x2="1080" y2="361.5"/><line class="cls-7" x1="720" y1="1.5" x2="1440" y2="361.5"/><line class="cls-7" x1="720" y1="1.5" x2="1800" y2="1.5"/><line class="cls-7" x1="1080" y1="361.5" x2="1080" y2="721.5"/><line class="cls-7" x1="1800" y1="1.5" x2="1080" y2="721.5"/><line class="cls-7" x1="1260" y1="271.5" x2="1080" y2="721.5"/><line class="cls-7" x1="720" y1="1.5" x2="1080" y2="361.5"/></g></g></svg>